<?xml version="1.0" encoding="UTF-8"?>
<svg id="Layer_2" data-name="Layer 2" xmlns="http://www.w3.org/2000/svg" viewBox="0 0 739.16 114">
  <defs>
    <style>
      .cls-1, .cls-2 {
        fill: #c9342b;
        stroke: #c9342b;
      }

      .cls-1, .cls-2, .cls-3, .cls-4, .cls-5 {
        stroke-miterlimit: 10;
      }

      .cls-1, .cls-2, .cls-3, .cls-5 {
        stroke-width: 2px;
      }

      .cls-2, .cls-4 {
        isolation: isolate;
        opacity: .3;
      }

      .cls-3 {
        stroke: #e8dcc3;
      }

      .cls-3, .cls-5 {
        fill: none;
      }

      .cls-4 {
        fill: #2b2b2b;
        stroke: #2b2b2b;
      }

      .cls-6 {
        fill: #4b6b41;
      }

      .cls-5 {
        stroke: #4b6b41;
      }
    </style>
  </defs>
  <path class="cls-3" d="M101.41,75.71c13.3,8.48,31.08,11.34,46.57,9.42,9.38-1.16,20.11-3.93,28.04-9.26"/>
  <g>
    <path class="cls-6" d="M86.45,28.35c.41.95.54,1.9.54,2.72,0,2.86-2.18,4.76-4.21,5.44-1.09.41-2.18.54-3.26.54-2.31,0-4.49-.95-5.71-3.53-4.08-9.79-10.88-17.81-26.37-17.81-20.39,0-33.85,16.45-33.85,43.23s13.46,43.09,33.85,43.09c16.31,0,24.06-9.79,27.6-20.66,1.09-2.99,3.53-4.21,6.12-4.21.82,0,1.77.14,2.72.41,2.31.54,4.76,2.58,4.76,5.44,0,.82-.14,1.49-.41,2.31-4.76,13.46-16.18,28.68-40.38,28.68C18.62,114,0,92.66,0,58.81S18.62,3.89,46.9,3.89c23.93,0,34.67,12.51,39.56,24.47h0Z"/>
    <path class="cls-6" d="M213.16,104.75c0,3.81-2.72,5.71-6.53,5.71s-6.39-1.9-6.39-5.84V18.29c0-10.47,4.21-14.55,13.87-14.55h53.97c3.67,0,5.57,2.45,5.57,5.85s-1.9,5.98-5.57,5.98h-50.71c-2.58,0-4.22,1.63-4.22,4.35v29.36h47.31c3.53,0,5.3,2.45,5.3,5.84,0,3.13-1.9,5.71-5.3,5.71h-47.31v43.91h.01Z"/>
    <path class="cls-6" d="M305.22,90.05c0,3.13,2.04,4.35,5.03,4.35h48.67c3.53,0,5.44,2.45,5.44,5.85s-1.9,5.98-5.44,5.98h-52.61c-9.65,0-13.87-4.21-13.87-14.55V15.01c0-10.47,4.21-14.68,13.87-14.68h51.39c3.53,0,5.44,2.45,5.44,5.85s-1.9,5.98-5.44,5.98h-47.85c-3.26,0-4.62,1.49-4.62,4.76v28.14h46.36c3.4,0,5.3,2.45,5.3,5.85,0,3.13-2.04,5.71-5.3,5.71h-46.36v33.44h-.01Z"/>
    <path class="cls-6" d="M376.92,12.78c-3.4,0-5.3-2.72-5.3-5.85s1.9-6.12,5.17-6.12h74.91c3.26,0,5.17,2.86,5.17,6.12s-2.04,5.85-5.17,5.85h-30.86v89.18c0,3.67-2.86,5.57-6.53,5.57s-6.53-1.9-6.53-5.57V12.78h-30.86Z"/>
    <path class="cls-6" d="M474.19,12.78c-3.4,0-5.3-2.72-5.3-5.85s1.9-6.12,5.17-6.12h74.91c3.26,0,5.17,2.86,5.17,6.12s-2.04,5.85-5.17,5.85h-30.86v89.18c0,3.67-2.86,5.57-6.53,5.57s-6.53-1.9-6.53-5.57V12.78h-30.86Z"/>
    <path class="cls-6" d="M581.86,90.54c0,3.13,2.04,4.35,5.03,4.35h48.67c3.53,0,5.44,2.45,5.44,5.85s-1.9,5.98-5.44,5.98h-52.61c-9.65,0-13.87-4.21-13.87-14.55V15.5c0-10.47,4.21-14.68,13.87-14.68h51.39c3.53,0,5.44,2.45,5.44,5.85s-1.9,5.98-5.44,5.98h-47.85c-3.26,0-4.62,1.49-4.62,4.76v28.14h46.36c3.4,0,5.3,2.45,5.3,5.85,0,3.13-2.04,5.71-5.3,5.71h-46.36v33.44h-.01Z"/>
    <path class="cls-6" d="M726.24,5.57c0-3.81,2.72-5.57,6.53-5.57s6.39,1.77,6.39,5.57v93.39c0,5.3-2.72,8.56-8.16,8.56-5.85,0-8.02-2.31-11.42-7.75l-36.03-58.32c-5.44-8.7-12.24-22.02-15.36-28.82.82,8.7,1.9,27.6,1.9,47.58v41.74c0,3.67-2.72,5.57-6.39,5.57s-6.53-1.9-6.53-5.57V8.16c0-5.03,3.26-8.16,8.56-8.16,6.12,0,8.43,2.45,11.01,6.53l34.26,55.6c6.25,10.2,13.87,24.74,17.4,32.35-.82-8.43-2.18-28.14-2.18-47.72V5.57h.02Z"/>
  </g>
  <path class="cls-5" d="M97.54,96.17c-.16-.05-.32-.1-.48-.15-1.32-.41-2.95-1.07-3.56-2.42-.77-1.69.42-3.26,1.2-4.69,2.38-4.17,4.24-8.61,6.56-12.82,3.38-6.13,7.02-12.33,10.29-18.6,1.81-3.47,3.39-7.05,5.07-10.58s3.57-6.52,5.18-9.88c2.16-4.54,4.85-8.85,7.2-13.29,2.76-5.23,5.52-10.47,8.28-15.7.98-1.86,2.86,1.37,3.3,2.13,1.35,2.31,2.39,4.83,3.7,7.2,4.6,8.3,9.14,16.64,13.71,24.95,4.47,8.12,9.53,15.96,13.62,24.29s8.79,16.93,13.21,25.37c.7,1.34,1.34,2.11-.2,2.95-.94.52-2.09.66-3.08,1.06-5.28,2.11-10.95,3.67-16.55,4.95-4.61,1.06-9.06,2.05-13.78,2.44-2.78.23-5.56.39-8.34.49-4.91.17-9.82-.16-14.71-.61-2.8-.25-5.59-.61-8.37-1.09-7.6-1.32-14.89-3.71-22.24-5.99h0Z"/>
  <circle class="cls-1" cx="117.42" cy="67.24" r="6.36"/>
  <circle class="cls-1" cx="149.08" cy="61.53" r="5.32"/>
  <circle class="cls-1" cx="134.8" cy="34.93" r="5.84"/>
  <circle class="cls-4" cx="148.92" cy="61.68" r="2.48"/>
  <circle class="cls-2" cx="116" cy="65.87" r="2.97"/>
  <circle class="cls-2" cx="116.53" cy="66.25" r="3.2"/>
  <circle class="cls-4" cx="117.1" cy="66.77" r="3.46"/>
  <circle class="cls-4" cx="135.03" cy="35.24" r="2.97"/>
</svg>