<?xml version="1.0" encoding="UTF-8"?>
<svg id="Optegning" xmlns="http://www.w3.org/2000/svg" viewBox="0 0 113.2 119.79">
  <defs>
    <style>
      .cls-1 {
        fill: #2b2b2b;
      }

      .cls-2 {
        fill: none;
        stroke: #2b2b2b;
        stroke-miterlimit: 10;
        stroke-width: 3px;
      }
    </style>
  </defs>
  <path class="cls-2" d="M75.01,83.91c.08-.39,17.32-7.86,17.47-7.46.22.57-1.97,1.24-2.69,1.53-5.02,2.03-8.7,3.28-12.98,5.08-2.46,1.04-4.88,2.18-7.39,3.11s-4.5,1.66-7.05,2.34c-1.44.39-3.46.89-4.05,2.26-.5,1.15-.31,2.46-.21,3.71.19,2.35-.04,4.88-1.45,6.77-1.61,2.15-4.99,2.83-7,.82-.77-.77-1.21-1.85-1.2-2.93,0-.57.79-1.44.82-2.02s-.45-1.5-.8-1.95-10.69,4.25-11.16,4.63c-.28.22,11.06-4.97,11.16-4.63-1.55-.28-6.68,1.96-8.04,2.76-1.75,1.02-2.62,1.2-4.02,2.76-1.71,1.92-.75,5.59-.61,7.94s.05,4.97-1.17,7.06c-.84,1.43-2.32,2.61-3.97,2.6-1.28,0-2.44-.7-3.46-1.48-.67-.51-1.32-1.1-1.63-1.88-.27-.69-.24-1.46-.2-2.2.1-2.18,1.3-6.11.49-8.21-.69-1.79-2.45.78-4.15,1.14-2.2.47-5.05,2.08-6.44,2.72-2.77,1.28-4.07,2.17-7.15,2.58-4.08.54-7.31-1.85-6.5-5.81.72-3.54,1.38-5.72,2.93-8.92,2.63-5.43,5.52-12.26,7.46-17.9,1.32-3.82,3.13-6.85,4.81-11.02,1.16-2.87,2.42-5.56,3.58-8.03s2.05-5.54,3.18-8.24c2.85-6.85,5.31-13.89,8.26-20.68.9-2.07,1.79-4.14,2.78-6.17.96-1.98,2-3.92,2.85-5.95,1.03-2.45,1.44-5.15,2.28-7.69-.96-1.24-1.38-2.91-1.41-4.48-.04-2.34,1.59-3.69,3.69-4.29,2.47-.71,4.31,0,6.55,1.14,15.01,7.62,30.38,15.46,41.01,28.94,3.91,4.96,7.84,9.9,11.4,15.12,3.54,5.19,7.27,10.96,9.56,16.83.82,2.1,1.41,4.38,1.02,6.59-.5,2.89-3.34,4.49-6.12,4.25-4.07-.34-5.25-3.94-6.57-7.27-1.99-4.99-4.05-9.98-6.8-14.61-3.03-5.09-7.22-9.03-11.3-13.24-2.62-2.7-5.24-5.4-7.96-8-1.5-1.44-3.03-2.85-4.65-4.15-2.98-2.4-6.24-4.42-9.49-6.43-1.29-.8-2.58-1.6-3.87-2.4-4.69-2.91-9.37-5.25-14.49-7.24"/>
  <path class="cls-2" d="M34.72,25.11c7.7,3.4,14.09,8.54,14.68,17.59.31,4.68-2.46,7.78-5.72,11.07-1.52,1.53-4,2.11-6.13,2.86-1.98.7-7.11-1.26-7.18,2.46"/>
  <path class="cls-2" d="M67.78,54.14c-2.68.91-4.9,2.89-5.63,5.93-2.1,8.77,12.35,16.57,17.23,7.96.85-1.49.98-3.28,1.02-4.99.03-1.49,0-3.01-.45-4.43-1.5-4.79-7.98-5.9-12.18-4.46h0Z"/>
  <path class="cls-2" d="M31.69,76.15c.49-.03.99-.05,1.47.08.58.15,1.08.51,1.53.9,2.28,2,3.5,5.29,2.63,8.19s-4.03,5.06-6.99,4.42c-.55-.12-1.07-.32-1.59-.53-.66-.27-1.32-.57-1.87-1.03-1.12-.95-1.6-2.44-2.03-3.85-.35-1.17-.71-2.38-.62-3.6.26-3.43,4.66-4.42,7.46-4.57h.01Z"/>
  <path class="cls-2" d="M30.3,58.52c.25.72.75,1.42,1.48,1.65.63.2,1.31.04,1.95-.13,1.41-.37,2.82-.74,4.23-1.1.76-.2,1.52-.4,2.26-.66,2.4-.87,4.52-2.48,6.01-4.55.57-.8,1.16-.97,1.46-1.91s.5-1.93,1.03-2.76c.56-.9.62-1.58,1.01-2.56.22-.55.43-1.1.55-1.68.2-.94.15-1.92.09-2.89-.12-2.12-1.51-4.16-2.66-5.94"/>
  <path class="cls-1" d="M32.99,59.92c1.93,0,1.93-3,0-3s-1.93,3,0,3h0Z"/>
  <path class="cls-1" d="M34.04,59.42c1.93,0,1.93-3,0-3s-1.93,3,0,3h0Z"/>
</svg>